<svg width="117" height="36" viewBox="0 0 117 36" fill="none" xmlns="http://www.w3.org/2000/svg">
<path d="M39.0585 25.6744H45.933C49.5469 25.6744 51.4718 23.7662 51.4718 21.1743C51.4718 18.7652 49.7669 17.3102 47.9364 17.2228V17.0637C49.6098 16.6821 50.8433 15.4815 50.8433 13.5654C50.8433 11.1246 49.052 9.3913 45.5009 9.3913H39.0585V25.6744ZM42.4604 22.8598V18.5346H45.3123C46.9464 18.5346 47.9599 19.4887 47.9599 20.8324C47.9599 22.0568 47.135 22.8598 45.2337 22.8598H42.4604ZM42.4604 16.2051V12.174H45.0452C46.5536 12.174 47.41 12.9612 47.41 14.1379C47.41 15.4259 46.3729 16.2051 44.9823 16.2051H42.4604Z" fill="#8CB7F5"/>
<path d="M53.2141 25.6744H56.5609V18.7652C56.5609 17.2625 57.6451 16.2289 59.1221 16.2289C59.5857 16.2289 60.222 16.3084 60.5363 16.4118V13.4064C60.2378 13.3349 59.8214 13.2871 59.4835 13.2871C58.1322 13.2871 57.0244 14.0822 56.5845 15.5929H56.4588V13.4621H53.2141V25.6744Z" fill="#8CB7F5"/>
<path d="M64.9537 25.9049C66.7371 25.9049 67.892 25.1178 68.4813 23.9809H68.5755V25.6744H71.7496V17.4374C71.7496 14.5275 69.3141 13.3031 66.6271 13.3031C63.7359 13.3031 61.8347 14.7024 61.3711 16.9286L64.4666 17.183C64.6944 16.372 65.4094 15.7757 66.6114 15.7757C67.7506 15.7757 68.4027 16.3561 68.4027 17.3579V17.4056C68.4027 18.1927 67.5778 18.2961 65.4801 18.5028C63.0917 18.7254 60.9469 19.5364 60.9469 22.2635C60.9469 24.6805 62.6518 25.9049 64.9537 25.9049ZM65.9122 23.5674C64.883 23.5674 64.1445 23.0824 64.1445 22.1522C64.1445 21.1981 64.9223 20.729 66.1008 20.5621C66.8314 20.4587 68.0256 20.2838 68.4263 20.0135V21.3094C68.4263 22.5895 67.3814 23.5674 65.9122 23.5674Z" fill="#8CB7F5"/>
<path d="M77.2846 18.6141C77.2924 17.0399 78.2195 16.1176 79.5708 16.1176C80.9143 16.1176 81.7235 17.0081 81.7156 18.5028V25.6744H85.0625V17.8986C85.0625 15.0522 83.4126 13.3031 80.8985 13.3031C79.1073 13.3031 77.8109 14.1935 77.2688 15.6167H77.1274V13.4621H73.9377V25.6744H77.2846V18.6141Z" fill="#8CB7F5"/>
<path d="M91.7386 25.8731C93.687 25.8731 94.7005 24.7362 95.1641 23.7185H95.3055V25.6744H98.6052V9.3913H95.2662V15.5133H95.1641C94.7162 14.5195 93.7499 13.3031 91.7308 13.3031C89.0831 13.3031 86.844 15.3861 86.844 19.5841C86.844 23.6708 88.9889 25.8731 91.7386 25.8731ZM92.7992 23.1778C91.1572 23.1778 90.2616 21.699 90.2616 19.5682C90.2616 17.4533 91.1415 15.9983 92.7992 15.9983C94.4255 15.9983 95.3369 17.3897 95.3369 19.5682C95.3369 21.7467 94.4098 23.1778 92.7992 23.1778Z" fill="#8CB7F5"/>
<g opacity="0.8">
<path fill-rule="evenodd" clip-rule="evenodd" d="M11.4148 2.27979H28.9829C31.8937 2.27979 34.2533 4.91911 34.2533 8.17487V27.8252C34.2533 31.0809 31.8937 33.7202 28.9829 33.7202H11.4148C8.504 33.7202 6.14435 31.0809 6.14435 27.8252L6.14435 8.17487C6.14435 4.91911 8.504 2.27979 11.4148 2.27979Z" fill="#0D6EFD" fill-opacity="0.2"/>
<path fill-rule="evenodd" clip-rule="evenodd" d="M6.5142 2.27979H25.007C28.0709 2.27979 30.5548 4.91911 30.5548 8.17487V27.8252C30.5548 31.0809 28.0709 33.7202 25.007 33.7202H6.5142C3.45022 33.7202 0.966369 31.0809 0.96637 27.8252L0.96637 8.17487C0.966369 4.91911 3.45022 2.27979 6.5142 2.27979Z" fill="#0D6EFD"/>
<g opacity="0.7">
<path opacity="0.3" fill-rule="evenodd" clip-rule="evenodd" d="M12.0511 15.1484H11.2928C11.2537 15.1484 11.1957 15.2034 11.1935 15.2397L10.6349 24.3765L21.0717 24.3745L20.5076 15.2397C20.5054 15.2048 20.446 15.1484 20.4083 15.1484H19.65V16.6864C19.65 17.1111 19.3098 17.4554 18.8901 17.4554C18.4704 17.4554 18.1302 17.1111 18.1302 16.6864V15.1484H13.5709V16.6864C13.5709 17.1111 13.2306 17.4554 12.811 17.4554C12.3913 17.4554 12.0511 17.1111 12.0511 16.6864V15.1484Z" fill="white"/>
<path fill-rule="evenodd" clip-rule="evenodd" d="M15.8506 9.76556C17.9479 9.76556 19.65 11.4883 19.65 13.6088L20.4083 13.6106C21.2486 13.6106 21.9722 14.2985 22.0244 15.1441L22.5949 24.3813C22.6472 25.2282 22.0113 25.9147 21.1735 25.9147H10.5276C9.69027 25.9147 9.05399 25.2269 9.10621 24.3813L9.67669 15.1441C9.729 14.2972 10.4511 13.6106 11.2928 13.6106H12.0511C12.0511 11.4872 13.7546 9.76556 15.8506 9.76556ZM18.1302 13.6107C18.1302 12.3378 17.1085 11.3037 15.8506 11.3037C14.5935 11.3037 13.5709 12.3372 13.5709 13.6089L18.1302 13.6107ZM12.0511 15.1486H11.2928C11.2537 15.1486 11.1958 15.2036 11.1935 15.2399L10.6349 24.3767L21.0717 24.3747L20.5076 15.2399C20.5054 15.205 20.446 15.1486 20.4083 15.1486H19.65V16.6866C19.65 17.1113 19.3098 17.4556 18.8901 17.4556C18.4705 17.4556 18.1302 17.1113 18.1302 16.6866V15.1486H13.5709V16.6866C13.5709 17.1113 13.2307 17.4556 12.811 17.4556C12.3913 17.4556 12.0511 17.1113 12.0511 16.6866V15.1486Z" fill="white"/>
</g>
</g>
</svg>
